<svg version="1.1" id="Layer_1" xmlns="http://www.w3.org/2000/svg" xmlns:xlink="http://www.w3.org/1999/xlink" x="0px" y="0px"
	 width="100%" viewBox="0 0 980 640" enable-background="new 0 0 980 640" xml:space="preserve">
<path fill="#FFFFFE" opacity="1.000000" stroke="none" 
	d="
M372.016876,1.448577 
	C573.455566,1.000000 774.911072,1.018671 976.366577,0.874391 
	C980.667419,0.871310 981.096436,2.051518 981.094482,5.864601 
	C980.988098,215.984863 980.985779,426.105164 981.107544,636.225403 
	C981.109863,640.225708 980.384827,641.116272 976.276550,641.114136 
	C733.163513,640.986450 490.050415,641.000000 246.468658,641.000000 
	C245.929474,640.704895 245.858948,640.409729 246.100708,639.783691 
	C255.372498,637.470154 264.541290,637.307983 273.623566,636.638977 
	C289.869019,635.442078 306.085052,633.789856 322.341400,632.879761 
	C339.760681,631.904602 357.154205,630.529114 374.605988,629.942017 
	C392.916473,629.326111 411.215118,629.825684 429.514984,629.496216 
	C434.829346,629.400574 440.097290,630.021973 445.455292,629.703125 
	C460.785736,628.790649 472.658234,622.701477 480.013184,608.256775 
	C481.616943,606.532715 483.412842,606.083374 485.131744,605.451294 
	C494.961548,601.836853 500.927429,594.878418 503.522003,584.733093 
	C506.354218,573.658630 505.730133,562.606506 503.962860,551.509644 
	C499.874481,525.838135 494.138153,500.461792 490.207092,474.762970 
	C489.634338,471.018768 488.688660,467.181915 491.394104,463.370056 
	C495.023651,461.982605 498.386017,462.394226 501.697235,462.393707 
	C637.283142,462.373444 772.869080,462.374725 908.455017,462.375885 
	C910.120544,462.375916 911.786377,462.409271 913.862183,462.289886 
	C917.916321,461.666687 916.317749,458.752686 916.727295,456.412048 
	C916.728210,455.677887 916.724182,455.267761 916.644653,454.586426 
	C916.415710,453.975983 916.169250,453.710144 915.562866,453.432434 
	C914.821167,453.331512 914.372742,453.322693 913.533325,453.342529 
	C773.839966,453.410797 634.537170,453.367920 495.234436,453.373932 
	C488.064667,453.374237 486.862793,452.880402 486.200653,447.569855 
	C483.997253,429.898163 480.423798,412.312134 480.665405,394.448212 
	C480.863770,379.781525 484.090912,365.359344 485.956421,350.825348 
	C488.923920,327.705750 491.145233,304.498688 493.656097,281.325836 
	C496.541412,254.697540 491.451843,229.314941 483.812164,204.104279 
	C476.892090,181.268250 469.391205,158.688675 458.150726,137.528030 
	C453.294342,128.385666 448.021942,119.512245 441.444641,111.488548 
	C432.283142,100.312416 421.172333,91.871506 407.440521,86.915222 
	C400.862305,84.540916 394.542847,81.415779 388.727081,77.487167 
	C378.972260,70.897644 377.306702,64.613808 382.427063,53.975132 
	C385.544830,47.497173 387.940643,40.757603 390.258911,33.978806 
	C391.014008,31.770870 391.644562,29.521200 392.057281,27.220795 
	C394.323730,14.588772 390.197174,8.013674 377.851471,4.494476 
	C375.797882,3.909083 373.543701,3.721463 372.016876,1.448577 
z"/>
<path fill="#FFFFFF" opacity="1.000000" stroke="none" 
	d="
M214.010712,640.571777 
	C144.525131,641.000000 75.050209,640.969666 5.575544,641.086731 
	C1.969325,641.092834 0.892635,640.501892 0.894850,636.578613 
	C1.013691,426.154785 1.009569,215.730896 0.916490,5.307054 
	C0.914966,1.861310 1.423431,0.886098 5.190035,0.890410 
	C122.147469,1.024314 239.105087,1.000000 356.531342,1.000000 
	C357.309662,2.348024 356.285278,2.868584 355.383331,3.023695 
	C349.534241,4.029579 345.975189,8.155186 342.091614,12.516192 
	C338.838593,13.699714 335.815033,13.298888 332.836761,13.299197 
	C314.218567,13.301130 306.228271,26.643513 307.583618,42.538910 
	C308.265472,50.535408 311.808868,57.530849 314.894440,64.710884 
	C318.737579,73.653877 318.014374,76.961807 310.836945,83.622894 
	C296.254395,97.156395 280.398224,108.916359 262.965179,118.583542 
	C253.797211,123.667480 244.742813,129.015854 238.373230,137.798019 
	C233.756653,144.163208 231.295105,151.444717 229.784653,158.938934 
	C222.796631,193.610291 211.548859,227.116684 202.170044,261.131866 
	C193.230331,293.554504 183.286560,325.686829 173.923492,357.987518 
	C169.748688,372.389801 170.740799,386.152130 177.703171,399.622559 
	C185.729630,415.151733 195.345001,429.803284 202.817337,445.626190 
	C203.712387,447.521484 205.384644,449.276917 203.711212,451.942749 
	C199.306580,454.402405 194.912460,453.727264 190.660187,453.286377 
	C181.171249,452.302612 171.717010,452.207245 162.247391,453.353729 
	C159.593506,453.675018 156.922119,453.586121 154.256699,453.586823 
	C126.593689,453.593994 98.930656,453.566681 71.267693,453.607178 
	C65.292854,453.615936 63.901508,455.129639 64.731415,460.058838 
	C65.058601,462.002075 65.979004,463.028320 67.926262,463.239136 
	C69.922188,463.455261 71.920532,463.406616 73.918564,463.406860 
	C115.746368,463.411926 157.574173,463.407196 199.401978,463.417938 
	C202.063217,463.418610 204.738647,463.247803 207.805817,463.966492 
	C210.258835,465.129547 210.741882,467.162018 211.318069,469.041107 
	C215.389847,482.320312 217.970428,495.900238 218.356873,509.782501 
	C218.806747,525.942444 218.888397,542.133850 214.919266,557.984924 
	C211.882553,570.112183 207.871719,581.953125 204.072021,593.856018 
	C201.588379,601.636353 199.497131,609.483032 199.361038,617.783630 
	C199.208267,627.100647 203.082291,633.777588 211.299438,638.029236 
	C212.334625,638.564880 213.388412,639.085876 214.010712,640.571777 
z"/>
<path fill="#565828" opacity="1.000000" stroke="none" 
	d="
M214.466858,641.000000 
	C201.250381,635.852539 196.330627,626.252563 198.236877,612.929443 
	C198.800232,608.991882 199.583008,605.046997 200.705978,601.235291 
	C204.693573,587.700317 209.514053,574.377930 212.848145,560.689880 
	C220.625732,528.759033 218.721069,497.024628 209.096588,465.287720 
	C206.283707,460.936310 205.062637,456.383209 204.009430,451.401123 
	C197.505219,437.553009 190.513474,424.340515 182.741837,411.523163 
	C175.800095,400.074463 169.866196,388.194702 170.176941,374.215149 
	C170.349350,366.458588 172.311676,359.099731 174.499741,351.754059 
	C190.918793,296.632446 206.927567,241.391525 222.342911,185.981171 
	C224.969589,176.539566 226.940887,166.904694 228.939255,157.301727 
	C232.149429,141.875381 240.437378,130.182343 254.155502,122.476631 
	C273.515442,111.601776 291.955994,99.441689 308.432281,84.462746 
	C309.664520,83.342506 310.939087,82.264755 312.118866,81.091690 
	C316.898254,76.339539 317.595306,72.874199 314.719818,66.711594 
	C311.415863,59.630787 307.822449,52.703220 306.784027,44.777203 
	C303.999725,23.524679 315.186035,11.145648 336.620972,11.920951 
	C338.117065,11.975065 339.610382,12.106137 341.570068,12.273159 
	C360.238861,11.312284 375.881165,22.764219 372.684814,41.463894 
	C370.842926,52.239590 367.112335,62.350983 362.462372,72.167755 
	C358.397888,80.748535 358.899048,82.608269 366.650299,87.763908 
	C371.816345,91.200027 377.370117,93.909592 383.162903,95.992348 
	C403.973785,103.474762 418.197205,118.468559 429.784058,136.487991 
	C439.289001,151.269745 446.580505,167.150360 452.342010,183.712296 
	C460.165222,206.200821 468.324860,228.617874 472.408020,252.191040 
	C475.674133,271.046967 474.924347,289.994873 472.933990,308.924713 
	C469.714478,339.544739 465.723022,370.066772 461.749634,400.597198 
	C459.901581,414.796997 461.888397,429.147705 463.766876,443.387848 
	C468.800110,481.543060 475.440399,519.416687 482.697510,557.200989 
	C485.339050,570.954346 486.840668,584.882141 484.270325,598.892395 
	C483.731140,601.831360 483.407074,604.848755 481.305054,607.705933 
	C475.033783,623.446411 462.694916,630.174194 447.206909,630.817322 
	C428.940674,631.575745 410.619110,630.973328 392.321686,631.015137 
	C359.682068,631.089661 327.197296,633.960266 294.692322,636.470276 
	C278.770081,637.699829 262.841766,638.851013 246.458588,640.072388 
	C244.054520,640.868713 242.024765,640.314148 239.613754,640.484741 
	C236.360916,640.514526 233.534409,640.419617 230.354660,640.770203 
	C224.977905,641.000000 219.955811,641.000000 214.466858,641.000000 
z"/>
<path fill="#B0B188" opacity="1.000000" stroke="none" 
	d="
M481.420624,607.975586 
	C482.674164,599.420654 484.371948,590.867371 484.081024,581.966125 
	C483.585785,566.811768 480.424377,552.089783 477.530640,537.326904 
	C473.490448,516.715271 469.917511,496.031372 466.979797,475.236755 
	C464.689026,459.021484 461.907043,442.850922 460.348083,426.564331 
	C458.953766,411.997253 459.935913,397.362122 462.379059,382.861664 
	C464.853577,368.174927 466.954987,353.448578 468.104858,338.566315 
	C469.137512,325.201508 471.426483,311.935120 472.508972,298.572510 
	C473.487946,286.487579 473.897461,274.310455 472.216370,262.228638 
	C467.030914,224.960892 454.635620,189.869888 438.973358,155.923889 
	C429.759125,135.953125 417.443695,118.023331 398.858032,105.278534 
	C392.912140,101.201241 386.078857,98.960472 379.559662,96.078400 
	C374.389679,93.792816 369.276855,91.427017 364.602631,88.201256 
	C357.272491,83.142586 356.655914,80.812492 360.510681,72.913521 
	C365.545776,62.596001 369.522095,51.943790 371.395477,40.530952 
	C372.903809,31.342075 369.240997,22.738529 361.089783,18.150599 
	C355.385620,14.940012 349.159698,13.270355 342.326874,12.586222 
	C344.447876,5.501695 350.117981,3.029994 356.762695,1.273857 
	C361.689240,1.000000 366.378510,1.000000 371.533875,1.000000 
	C373.878448,2.586808 376.315643,2.454690 378.501190,3.062037 
	C391.753693,6.744801 396.645081,14.816958 393.383728,28.204372 
	C391.213593,37.112484 388.005890,45.678070 384.014832,53.940907 
	C378.623688,65.102287 379.993469,70.171265 390.479309,76.917648 
	C396.799744,80.984108 403.608673,84.200081 410.631378,86.777473 
	C428.965332,93.506203 441.251648,106.965546 451.335724,122.853630 
	C469.115753,150.867157 478.945587,182.086319 488.028412,213.665863 
	C493.502228,232.697418 496.714172,251.895905 495.817627,271.693573 
	C495.012482,289.472260 491.921051,307.041931 490.590698,324.759796 
	C488.735870,349.463715 481.930481,373.626556 482.220459,398.489868 
	C482.418213,415.442810 485.704315,432.180145 487.789398,448.994598 
	C488.083374,451.365295 489.041656,452.181427 491.281464,452.001526 
	C492.605499,451.895172 493.945251,451.984924 495.277924,451.984955 
	C633.044067,451.987549 770.810181,451.989716 908.576294,451.996460 
	C910.407654,451.996552 912.239075,452.055206 914.521851,452.211700 
	C914.139832,454.547546 912.113647,454.337769 910.357727,454.509155 
	C908.038330,454.735535 905.698975,454.611938 903.368164,454.612000 
	C770.158081,454.614288 636.947998,454.614044 503.737885,454.614044 
	C502.738800,454.614044 501.739746,454.613525 500.740662,454.614197 
	C491.500153,454.620392 491.500153,454.620453 491.216553,463.791443 
	C490.506622,475.333252 493.650299,485.934784 495.409821,496.698730 
	C498.939270,518.289795 504.172180,539.587585 506.551758,561.382751 
	C507.577515,570.777527 506.726959,580.039062 503.725891,588.909241 
	C500.198761,599.334290 492.456329,605.446167 481.420624,607.975586 
z"/>
<path fill="#A8B65B" opacity="1.000000" stroke="none" 
	d="
M230.449982,641.000000 
	C232.603439,639.531067 235.448120,640.356323 238.616150,640.215088 
	C239.181107,640.418518 239.313126,640.546448 239.222565,640.837158 
	C236.299988,641.000000 233.599976,641.000000 230.449982,641.000000 
z"/>
<path fill="#C9D58B" opacity="1.000000" stroke="none" 
	d="
M239.437500,641.000000 
	C239.000000,641.000000 239.039398,640.644958 239.044235,640.467773 
	C241.082565,640.172180 243.116043,640.053772 245.575256,640.021301 
	C246.000977,640.107239 245.934052,640.553528 245.967026,640.776733 
	C243.958328,641.000000 241.916672,641.000000 239.437500,641.000000 
z"/>
<path fill="#A2B63D" opacity="1.000000" stroke="none" 
	d="
M491.510376,464.266235 
	C487.182495,453.325134 487.391785,453.024078 498.851624,453.023956 
	C635.343628,453.022339 771.835693,453.021698 908.327698,453.009705 
	C910.319885,453.009552 912.312134,452.867950 914.638794,452.564606 
	C915.409912,452.319397 915.846619,452.301910 916.596558,452.384521 
	C917.104553,452.492157 917.299316,452.499725 917.518188,452.798706 
	C917.635010,453.517487 917.727722,453.944916 917.788818,454.701508 
	C917.146790,457.775787 917.688782,460.566315 917.238037,463.695343 
	C915.219421,464.140198 913.393616,464.280548 911.567749,464.280640 
	C771.703857,464.287170 631.839905,464.282684 491.510376,464.266235 
z"/>
<path fill="#57592B" opacity="1.000000" stroke="none" 
	d="
M743.123901,355.810852 
	C752.104187,355.810852 760.602661,355.742157 769.098083,355.871368 
	C770.707642,355.895844 773.486145,354.705078 773.761902,357.033752 
	C774.094910,359.845490 771.120850,358.747375 769.574890,358.942780 
	C764.837036,359.541595 762.238281,362.216766 762.143433,366.820587 
	C761.952515,376.094849 762.086609,385.375793 762.086609,395.760132 
	C773.496765,385.870056 784.860596,377.271454 793.264160,365.610565 
	C796.074402,361.710999 794.611877,359.588135 789.365784,358.865540 
	C788.085510,358.689178 785.868774,359.568054 786.139526,357.056152 
	C786.346436,355.136261 788.233337,355.852142 789.403381,355.844116 
	C798.566833,355.781219 807.730957,355.786377 816.894531,355.839020 
	C817.915649,355.844910 819.540405,355.240417 819.744080,356.908234 
	C819.939575,358.508850 818.307556,358.596924 817.260071,358.708954 
	C811.489563,359.326172 806.835999,362.213135 802.885925,366.129913 
	C794.028992,374.912292 785.372131,383.896515 776.466309,392.969391 
	C788.712341,406.091156 801.198914,419.497925 813.723267,432.869354 
	C816.502625,435.836700 819.746765,438.116760 823.873352,438.840240 
	C824.832153,439.008331 826.022583,438.945740 825.856750,440.417999 
	C825.696167,441.843872 824.484985,441.649933 823.542236,441.651672 
	C812.045776,441.673218 800.549316,441.667847 789.052856,441.663940 
	C787.871216,441.663544 786.390930,441.653381 786.444641,440.119598 
	C786.502197,438.475891 788.166321,439.032623 789.192932,438.844971 
	C796.346802,437.537201 797.280945,435.366577 792.543945,429.974396 
	C784.518372,420.838654 776.285522,411.884796 768.120483,402.872009 
	C767.395874,402.072144 766.798645,400.599152 765.361694,401.455414 
	C763.816528,402.376221 762.013611,403.350464 762.017639,405.481964 
	C762.034302,414.307678 761.947327,423.141541 762.310181,431.955444 
	C762.508789,436.780060 766.316833,437.903015 770.423340,438.391418 
	C771.581177,438.529114 773.631165,438.349335 773.595215,440.044800 
	C773.549255,442.209869 771.449341,441.640106 770.077576,441.646149 
	C760.080811,441.690216 750.083801,441.688416 740.087036,441.646973 
	C738.876892,441.641968 737.077942,442.139893 736.981140,440.160980 
	C736.893982,438.379333 738.651001,438.966187 739.635376,438.726929 
	C747.216003,436.884308 748.413757,435.760559 748.474854,427.909363 
	C748.627747,408.249939 748.612000,388.588165 748.493835,368.928345 
	C748.452271,362.011902 746.527344,359.905853 740.515076,359.005798 
	C739.117920,358.796600 736.970825,359.315247 737.054260,357.194366 
	C737.144470,354.901855 739.361877,356.115387 740.646973,355.834625 
	C741.283020,355.695648 741.974548,355.810669 743.123901,355.810852 
z"/>
<path fill="#595B2D" opacity="1.000000" stroke="none" 
	d="
M729.375000,441.679260 
	C720.449158,441.679535 711.953064,441.718018 703.458069,441.637268 
	C702.172302,441.625061 700.053772,442.552338 699.911560,440.183319 
	C699.796997,438.275055 701.847107,438.466553 702.936584,438.387329 
	C709.644104,437.899445 709.156738,434.856110 707.632568,430.250458 
	C706.016846,425.368347 703.809448,420.684662 701.962341,415.875183 
	C701.231323,413.971985 699.877136,413.513550 698.054504,413.519073 
	C688.725952,413.547363 679.397217,413.551666 670.068665,413.526337 
	C668.413574,413.521820 667.125427,413.983826 666.500977,415.625366 
	C664.669739,420.439026 662.561707,425.171997 661.107178,430.097534 
	C659.616089,435.146698 660.930664,436.872650 666.000549,438.393982 
	C667.109009,438.726593 669.084656,438.260742 668.968933,440.257843 
	C668.850281,442.307098 667.016907,441.637238 665.844604,441.648743 
	C659.348450,441.712311 652.851379,441.692444 646.354736,441.667877 
	C645.254333,441.663696 643.867065,442.018311 643.543884,440.379059 
	C643.350037,439.395752 644.037659,438.737152 644.877258,438.558350 
	C651.287048,437.193176 653.136353,431.618866 655.306946,426.728363 
	C662.049194,411.537445 668.451111,396.195312 674.966675,380.904022 
	C678.224182,373.259125 681.421448,365.588562 684.695129,357.950684 
	C685.334717,356.458496 685.818542,354.437408 687.728027,354.337036 
	C689.901855,354.222748 689.953247,356.533173 690.571106,357.937805 
	C700.208252,379.848053 709.644043,401.848328 719.465332,423.675293 
	C722.140320,429.620300 723.247803,437.235077 731.655396,438.777313 
	C732.452087,438.923462 732.922302,439.910095 732.465210,440.806122 
	C731.902893,441.908691 730.770813,441.616119 729.375000,441.679260 
z"/>
<path fill="#595B2E" opacity="1.000000" stroke="none" 
	d="
M832.225952,438.169495 
	C836.113953,437.016266 837.755310,434.158997 839.233093,431.105713 
	C850.460815,407.907623 859.500916,383.763855 869.926514,360.219879 
	C870.883179,358.059387 870.916687,354.502075 873.745605,354.412018 
	C876.734131,354.316864 876.713806,357.974792 877.646729,360.086273 
	C887.853210,383.185730 897.948975,406.334106 908.034363,429.486816 
	C909.815857,433.576660 911.900208,437.240875 916.697388,438.392517 
	C917.565552,438.600952 918.831177,438.777740 918.773010,440.125824 
	C918.717468,441.411133 917.634399,441.710693 916.631653,441.712036 
	C906.975952,441.724976 897.320312,441.691895 887.664612,441.662354 
	C886.752258,441.659576 886.067810,441.321106 885.996521,440.273865 
	C885.920227,439.152985 886.752014,439.054443 887.547424,438.750641 
	C895.536926,435.699005 895.886353,434.943420 892.614807,426.923584 
	C890.861267,422.624969 889.957397,417.208008 886.790283,414.471252 
	C883.515991,411.641937 877.886658,414.003723 873.290405,413.748169 
	C867.975403,413.452667 862.632263,413.673126 857.315063,413.401428 
	C854.527771,413.259003 853.039551,414.249390 852.144409,416.857330 
	C850.688904,421.097382 848.835693,425.202271 847.415222,429.452667 
	C845.575989,434.955841 846.754883,436.848602 852.321594,438.500671 
	C853.424255,438.827942 855.500977,438.270630 855.368408,440.228607 
	C855.247314,442.016510 853.444580,441.678955 852.172058,441.682678 
	C845.512207,441.702240 838.852234,441.683838 832.192261,441.676361 
	C831.194458,441.675262 830.040833,441.779114 829.770203,440.506287 
	C829.425415,438.885040 830.847778,438.707489 832.225952,438.169495 
z"/>
<path fill="#5D5E2F" opacity="1.000000" stroke="none" 
	d="
M644.873047,373.379944 
	C641.341797,363.821381 638.627991,361.963196 628.374084,361.757690 
	C618.802612,361.565857 618.801575,361.565857 618.801941,370.907898 
	C618.802551,389.556519 618.791443,408.205170 618.811096,426.853790 
	C618.820862,436.106415 619.225586,436.538544 628.030029,438.448059 
	C629.157043,438.692505 631.143555,438.214203 631.066956,440.189819 
	C630.990845,442.150726 629.174377,441.664276 627.944519,441.668182 
	C617.454773,441.701416 606.964844,441.704376 596.475098,441.664612 
	C595.265381,441.660004 593.392944,442.173370 593.334351,440.257202 
	C593.278687,438.435181 595.202332,438.733490 596.404846,438.468262 
	C604.835388,436.608765 605.203674,436.212067 605.211792,427.582306 
	C605.231018,407.102112 605.134583,386.621277 605.297729,366.142395 
	C605.325562,362.645752 604.383240,361.278717 600.860352,361.718018 
	C598.889893,361.963745 596.867859,361.762604 594.872925,361.851074 
	C584.638367,362.305176 581.956726,364.468750 579.164124,374.445618 
	C578.745667,375.940552 579.094238,378.159363 576.579163,377.923218 
	C573.786560,377.661041 575.133972,375.374176 575.102417,374.026245 
	C574.989502,369.202362 575.188293,364.372101 575.159241,359.544922 
	C575.143188,356.874481 576.094604,355.707336 578.980042,355.719116 
	C601.124939,355.809448 623.270447,355.801178 645.415466,355.731659 
	C648.028076,355.723480 648.917480,356.660492 648.896912,359.227875 
	C648.859558,363.886322 649.207825,368.547974 649.164062,373.206146 
	C649.149231,374.791748 650.627991,377.313354 648.034607,377.843903 
	C645.021362,378.460388 645.579834,375.461029 644.873047,373.379944 
z"/>
<path fill="#59592A" opacity="1.000000" stroke="none" 
	d="
M558.326416,416.998932 
	C558.330566,421.661621 558.348083,425.824768 558.335449,429.987823 
	C558.321411,434.643280 560.200806,437.647949 565.196899,438.039001 
	C566.021423,438.103516 566.869751,438.232880 567.641724,438.512543 
	C568.756226,438.916290 570.761719,438.468689 570.455750,440.491760 
	C570.231323,441.975281 568.663818,441.640381 567.539978,441.655518 
	C565.375549,441.684723 563.210449,441.671417 561.045654,441.671082 
	C552.552917,441.669678 544.060059,441.684540 535.567505,441.643951 
	C534.330811,441.638031 532.505920,442.144928 532.283875,440.330231 
	C532.044800,438.376801 534.019165,438.694763 535.182800,438.452148 
	C544.142334,436.584320 544.684753,435.949097 544.688538,426.588013 
	C544.696106,407.770721 544.703186,388.953461 544.685303,370.136169 
	C544.677124,361.532257 543.593262,360.303070 534.972168,358.930939 
	C533.835693,358.750061 532.318298,358.901764 532.267029,357.375732 
	C532.194885,355.229248 534.086121,355.861633 535.234619,355.852295 
	C545.891296,355.765808 556.548645,355.736877 567.205627,355.754852 
	C568.421875,355.756897 570.233398,355.301666 570.424683,357.192566 
	C570.638550,359.307159 568.736816,358.744781 567.553345,358.908081 
	C559.687683,359.993286 558.367798,361.429626 558.343872,369.539368 
	C558.297791,385.192566 558.328003,400.846008 558.326416,416.998932 
z"/>
<path fill="#5D5E33" opacity="1.000000" stroke="none" 
	d="
M562.070984,503.940521 
	C562.071533,506.462708 562.071533,508.527466 562.071533,510.592194 
	C561.724792,510.871246 561.378113,511.150299 561.031372,511.429352 
	C558.711853,502.525421 552.020874,505.218628 546.442932,504.898956 
	C544.269897,504.774414 543.433350,505.736389 543.570923,507.827850 
	C543.636292,508.820557 543.391724,509.846954 543.542969,510.818390 
	C544.158691,514.774902 541.302795,520.475769 546.007812,522.337341 
	C553.836853,525.434998 561.951538,522.374878 565.915161,516.468201 
	C566.468689,515.643311 566.830933,514.688110 567.989563,514.554016 
	C569.578979,521.729980 566.467407,525.999023 559.603088,526.012390 
	C550.221497,526.030640 540.839905,526.016907 530.829712,525.312256 
	C537.701599,524.201965 536.419373,519.407166 536.427979,515.274231 
	C536.443848,507.616638 536.303833,499.955780 536.489258,492.302612 
	C536.588562,488.203613 536.535828,484.521912 530.377380,483.907166 
	C532.950134,482.140717 534.919067,482.702484 536.708862,482.684418 
	C544.199280,482.608795 551.690918,482.650269 559.182068,482.652069 
	C566.688416,482.653839 567.955200,484.809113 564.517517,492.987274 
	C561.788635,482.593445 553.614563,486.430084 547.245239,485.607697 
	C544.799683,485.291931 543.486450,486.468658 543.655945,489.084198 
	C543.741882,490.410217 543.533081,491.762665 543.690857,493.075134 
	C544.037109,495.956207 542.130859,500.325867 544.699097,501.415619 
	C548.315125,502.949982 552.841248,502.257629 556.938416,501.148773 
	C559.737061,500.391388 559.218384,497.356995 561.020691,495.481720 
	C563.048218,498.088257 561.592834,500.941010 562.070984,503.940521 
z"/>
<path fill="#5D5E32" opacity="1.000000" stroke="none" 
	d="
M872.823669,485.021088 
	C882.078491,491.951782 885.259155,503.935333 880.857361,514.204163 
	C877.062683,523.056458 867.486938,528.058289 857.505615,526.367371 
	C849.153076,524.952454 843.516113,520.066406 841.163452,512.100403 
	C838.450378,502.913849 839.583801,494.224213 847.035278,487.311188 
	C853.579102,481.240204 861.219360,480.656250 869.363708,483.313538 
	C870.457397,483.670349 871.451355,484.333038 872.823669,485.021088 
z"/>
<path fill="#5D5D31" opacity="1.000000" stroke="none" 
	d="
M689.958862,492.187134 
	C697.113342,507.499481 691.073242,522.583313 676.661072,526.134155 
	C666.444153,528.651367 655.862976,523.395325 652.084534,513.926025 
	C647.515076,502.474426 651.267517,490.040710 660.930237,484.616211 
	C670.491211,479.248840 681.917542,481.542511 688.680786,490.196533 
	C689.089661,490.719666 689.426758,491.298859 689.958862,492.187134 
z"/>
<path fill="#5B5D32" opacity="1.000000" stroke="none" 
	d="
M782.930298,525.796387 
	C788.881592,521.653015 787.238281,515.271118 787.289307,509.408600 
	C787.337036,503.921234 787.249207,498.432465 787.315796,492.945496 
	C787.365356,488.865326 787.669128,484.731232 781.964600,483.473633 
	C791.654358,482.540558 801.128479,481.317993 810.175903,485.083923 
	C814.307861,486.803833 816.340820,490.501923 816.103149,495.170624 
	C815.862305,499.902954 813.794250,503.381195 809.311951,505.286682 
	C805.543396,506.888763 801.583740,507.044769 797.578491,507.102325 
	C796.395142,507.119354 794.384705,506.410767 794.269287,508.240448 
	C793.988159,512.698608 793.526794,517.235962 794.544189,521.637695 
	C795.124268,524.147034 798.274719,523.640076 800.010193,525.117981 
	C794.364441,526.428040 788.839600,526.000610 782.930298,525.796387 
z"/>
<path fill="#5E5F33" opacity="1.000000" stroke="none" 
	d="
M898.508118,482.016235 
	C901.080627,481.968231 903.243774,481.702911 905.327087,482.594421 
	C908.076416,483.771027 910.847534,484.570831 913.788330,481.230347 
	C914.281982,486.681946 914.687561,491.160706 915.109924,495.825134 
	C912.318298,495.647583 912.816467,493.598938 912.125977,492.496735 
	C910.801331,490.381897 909.697327,488.172241 907.466919,486.766663 
	C903.408386,484.209015 898.278381,484.489014 896.099121,487.495544 
	C893.991577,490.403076 895.472168,494.363770 899.959717,497.454865 
	C903.518005,499.905945 907.239136,502.124298 910.755371,504.631927 
	C916.306213,508.590576 918.023071,513.895752 915.712708,519.282593 
	C913.566040,524.287720 907.103760,527.278015 901.130798,526.714478 
	C897.664368,526.387451 894.172546,522.480896 890.530212,526.462891 
	C890.229736,526.791382 889.501892,526.008972 889.189575,525.369690 
	C888.251709,523.449829 887.477173,515.733765 888.064209,512.342346 
	C890.130005,513.376709 890.374756,515.488953 891.305298,517.037720 
	C893.911621,521.375244 897.557190,523.984863 902.751221,523.575317 
	C905.422974,523.364624 908.194092,522.602966 909.061340,519.550964 
	C909.967041,516.363403 909.919312,513.117065 906.915100,510.949554 
	C903.145020,508.229462 899.187866,505.768646 895.310913,503.196838 
	C891.161865,500.444519 888.367554,496.941711 889.132629,491.602478 
	C889.883728,486.361298 893.179688,483.435181 898.508118,482.016235 
z"/>
<path fill="#5D5E32" opacity="1.000000" stroke="none" 
	d="
M577.535522,524.777710 
	C576.109192,524.936584 574.891296,527.876038 574.311584,525.527100 
	C573.282288,521.356018 572.020081,517.001099 572.811035,512.211853 
	C575.490173,513.631470 575.668823,516.042725 576.827759,517.777405 
	C579.325928,521.516663 582.559570,523.827759 587.145142,523.634338 
	C590.016541,523.513245 592.906494,523.001953 593.944519,519.660583 
	C595.010620,516.229004 594.865356,513.011414 591.599670,510.732452 
	C588.191406,508.354004 584.696350,506.100220 581.260010,503.761475 
	C574.306458,499.028961 572.363220,494.151917 575.080444,488.335114 
	C577.699707,482.728027 583.273987,480.801788 590.868469,482.879486 
	C594.859009,483.971222 594.859009,483.971222 598.580688,482.037537 
	C599.103210,486.659821 600.158997,491.051819 599.863342,495.729889 
	C597.264648,495.561890 597.607788,493.434479 596.990295,492.100159 
	C594.897888,487.578796 591.371582,485.243866 586.439331,485.016357 
	C583.882202,484.898376 581.959961,485.969360 580.730530,488.269653 
	C579.519592,490.535187 580.409790,492.467651 581.661133,494.308441 
	C583.102722,496.429199 585.272278,497.700256 587.391663,499.033966 
	C590.205444,500.804626 593.091797,502.493195 595.731201,504.500702 
	C601.401611,508.813538 602.970703,513.407715 600.892944,518.749390 
	C598.885437,523.910645 592.862244,527.385559 586.642639,526.642822 
	C583.698303,526.291199 580.823669,525.355286 577.535522,524.777710 
z"/>
<path fill="#5F5F34" opacity="1.000000" stroke="none" 
	d="
M609.915161,493.070953 
	C616.616272,483.194824 625.184875,480.093628 636.991028,483.062225 
	C639.544861,483.704407 642.123230,485.169128 644.471191,480.919434 
	C645.666809,486.963867 646.073669,491.813782 645.400269,496.883820 
	C643.350830,496.430267 643.344360,495.131134 642.888428,494.105316 
	C640.478638,488.682556 636.787109,485.187653 630.373901,485.193726 
	C623.705078,485.200012 619.411682,488.369019 616.932373,494.350922 
	C614.691772,499.757080 614.341858,505.289276 615.843201,510.947388 
	C619.074280,523.124023 631.015625,527.382751 641.299622,520.057129 
	C642.602478,519.129089 643.631165,517.648926 645.491333,517.630737 
	C644.928528,521.312744 641.305847,524.447754 635.425659,526.025635 
	C626.485168,528.424805 618.366211,526.736877 612.308228,519.576050 
	C605.601074,511.647797 605.530884,502.630524 609.915161,493.070953 
z"/>
<path fill="#5C5D32" opacity="1.000000" stroke="none" 
	d="
M762.814636,492.113770 
	C768.489868,503.397400 771.464905,515.628906 779.538391,525.684937 
	C774.379028,526.255493 769.132629,526.046387 762.731873,525.782593 
	C765.225098,523.503540 769.498901,523.606323 767.231323,519.427795 
	C765.289978,515.850342 765.246887,510.648224 758.922302,511.900726 
	C757.161072,512.249512 755.214417,512.247803 753.453064,511.899780 
	C748.128235,510.847717 746.244934,513.785767 744.979980,518.258972 
	C744.036621,521.595032 743.739929,524.110657 748.024902,525.454346 
	C743.983459,525.454346 739.942078,525.454346 735.944885,525.454346 
	C745.257935,514.458008 747.929443,500.162354 754.257629,487.638306 
	C755.201172,485.770935 755.200745,482.421204 757.284119,482.349152 
	C759.903809,482.258636 759.611816,485.843018 760.812683,487.691040 
	C761.616516,488.928009 762.062927,490.397247 762.814636,492.113770 
z"/>
<path fill="#5A5B2F" opacity="1.000000" stroke="none" 
	d="
M730.696777,525.065674 
	C719.096497,526.776489 707.741272,525.733215 695.884033,525.455872 
	C702.711121,523.667908 701.035889,518.552002 701.076172,514.240540 
	C701.144653,506.916229 701.097351,499.590820 701.094177,492.265869 
	C701.091553,486.244934 701.088623,486.244934 695.191772,483.163391 
	C702.000366,483.163391 707.881104,483.163391 713.761841,483.163391 
	C706.309692,485.243805 708.271667,491.295380 708.206177,496.397217 
	C708.114319,503.554504 708.383240,510.721771 708.102112,517.869202 
	C707.952209,521.681641 709.536377,523.022766 713.000610,522.909485 
	C720.265015,522.672058 727.992676,523.525757 731.749573,514.958191 
	C731.893372,514.630249 732.561707,514.532288 733.405945,514.123779 
	C733.467651,518.096375 731.882996,521.342896 730.696777,525.065674 
z"/>
<path fill="#5B5D32" opacity="1.000000" stroke="none" 
	d="
M834.217896,523.826294 
	C835.471008,523.963928 836.417297,524.091431 836.615234,525.025574 
	C836.802063,525.907288 835.975037,525.971069 835.318298,525.971741 
	C829.630249,525.977722 823.942139,525.975098 817.772583,525.346436 
	C825.520264,524.024780 823.933777,518.390991 823.994934,513.676331 
	C824.081360,507.012787 823.924377,500.345673 824.040771,493.683044 
	C824.121643,489.052643 824.602112,484.359528 818.104858,483.169830 
	C824.312500,483.169830 830.520142,483.169830 836.727844,483.169830 
	C828.634766,484.984619 830.987915,491.391266 830.892578,496.582947 
	C830.760986,503.744995 830.856140,510.911530 830.883789,518.075989 
	C830.893005,520.445740 830.910400,522.858215 834.217896,523.826294 
z"/>
<path fill="#B0B188" opacity="1.000000" stroke="none" 
	d="
M917.386108,463.824249 
	C917.120667,461.259369 917.196045,458.453430 917.514404,455.339050 
	C918.211365,457.883148 918.321960,460.734406 917.386108,463.824249 
z"/>
<path fill="#B0B188" opacity="1.000000" stroke="none" 
	d="
M917.579529,452.884705 
	C917.337830,453.035980 917.172302,452.924377 916.977722,452.619873 
	C917.215759,452.295074 917.451416,452.359985 917.579529,452.884705 
z"/>
<path fill="#A5B844" opacity="1.000000" stroke="none" 
	d="
M203.713547,451.306641 
	C206.557205,455.073212 207.735062,459.639130 209.069260,464.515747 
	C175.218765,464.840179 141.399918,464.775482 107.581032,464.725342 
	C94.418991,464.705841 81.254875,464.590820 68.096085,464.797852 
	C64.279732,464.857910 62.382477,463.952026 63.040451,459.849762 
	C63.196762,458.875244 63.194702,457.833069 63.038940,456.858215 
	C62.399929,452.858856 64.090317,451.836884 68.001343,451.856049 
	C96.990433,451.998016 125.980705,451.944000 154.970459,451.884583 
	C171.111099,451.851501 187.251465,451.690033 203.713547,451.306641 
z"/>
<path fill="#AEAF87" opacity="1.000000" stroke="none" 
	d="
M349.271240,69.669861 
	C349.709015,70.250633 349.918030,70.776886 349.802979,71.218803 
	C346.197937,85.068031 348.702789,91.023369 361.011047,98.489487 
	C366.302826,101.699448 371.841003,104.497597 377.618103,106.489967 
	C396.969696,113.163834 409.965393,126.947395 420.345978,143.743546 
	C436.240173,169.460953 445.723145,197.802887 454.002045,226.628632 
	C459.854431,247.005676 464.306641,267.620087 462.854401,288.974091 
	C461.930939,302.552490 460.336517,316.090210 458.833313,329.622894 
	C457.092560,345.294403 455.782562,361.023163 452.984833,376.564148 
	C451.248016,386.211731 449.951050,395.930359 449.361694,405.703674 
	C448.678619,417.030487 450.028351,428.313538 451.351013,439.529572 
	C454.187897,463.586609 457.895996,487.529114 462.058990,511.390808 
	C464.995331,528.221497 468.576294,544.940552 471.456604,561.779968 
	C473.670441,574.722961 475.448608,587.767395 472.025238,600.846802 
	C471.172546,604.104492 469.944183,607.148621 467.532776,609.962402 
	C459.705292,611.391418 452.283752,609.676880 444.843353,609.195496 
	C430.033844,608.237305 415.257355,608.033325 400.469238,609.276978 
	C397.806793,609.500916 395.144714,609.550720 392.482971,609.492737 
	C372.817047,609.064758 353.279175,611.230896 333.685089,612.290649 
	C312.909607,613.414246 292.218201,615.434265 271.518188,617.418030 
	C262.903137,618.243530 254.284332,619.028748 245.696655,620.102295 
	C235.365051,621.393738 229.838486,617.148499 228.714890,606.699280 
	C228.215927,602.059204 228.387238,597.397705 229.158737,592.758362 
	C231.675781,577.622925 235.783936,562.846191 239.240463,547.924805 
	C244.919373,523.409607 245.414215,498.832306 240.771957,474.122894 
	C240.215714,471.162231 239.340195,468.305450 238.126923,465.091095 
	C235.521179,452.995453 236.303009,454.532196 225.182297,454.410767 
	C223.193832,454.389008 221.190414,454.530518 218.875107,453.801758 
	C216.745041,451.170319 219.201065,451.230988 220.320877,450.981750 
	C222.930771,450.400818 225.630020,450.721436 228.292633,450.694366 
	C234.458588,450.631744 234.686676,450.415833 232.556717,444.422180 
	C228.080780,431.826874 222.279953,419.863129 215.433319,408.373260 
	C210.668060,400.376282 205.441467,392.655487 202.043030,383.850830 
	C197.952316,373.252655 197.679871,362.804199 201.384415,352.115906 
	C215.905869,310.218933 227.135529,267.329010 239.632797,224.822876 
	C246.539307,201.332199 253.436432,177.831985 258.943420,153.951981 
	C262.274536,139.507263 269.916260,128.211472 282.867218,120.347031 
	C291.264923,115.247566 299.670654,110.151878 308.113129,105.125900 
	C322.613464,96.493523 334.565674,84.997955 345.536072,72.360931 
	C346.508087,71.241226 347.215179,69.834244 349.271240,69.669861 
z"/>
<path fill="#FCFDFA" opacity="1.000000" stroke="none" 
	d="
M349.887665,69.514313 
	C342.785278,77.869957 335.412964,85.468292 327.509094,92.583702 
	C317.263062,101.807617 305.201202,108.225510 293.475586,115.181915 
	C292.473694,115.776314 291.496124,116.418213 290.462860,116.952171 
	C272.173767,126.403404 262.750732,141.455917 258.128693,161.586746 
	C248.719971,202.565536 235.910049,242.678909 224.035522,283.015381 
	C217.136414,306.450897 210.919327,330.095459 202.397079,353.038696 
	C197.032288,367.481567 200.568466,380.964691 208.079773,393.595734 
	C218.123871,410.485870 228.211853,427.318665 234.525375,446.078369 
	C236.521805,452.010468 236.573578,451.975739 230.370422,452.012024 
	C226.376923,452.035370 222.383759,452.118622 217.994873,452.361023 
	C217.549683,453.192932 217.202652,453.466034 216.454224,452.987427 
	C213.284683,442.869812 208.649918,433.860504 203.631409,425.035095 
	C198.044479,415.210052 191.781906,405.784943 186.687836,395.661377 
	C181.024963,384.407410 179.979767,372.962097 183.511429,360.837128 
	C199.218216,306.912170 214.870224,252.970734 230.313004,198.969772 
	C233.920288,186.355713 237.039413,173.568237 239.647232,160.711273 
	C242.508530,146.604660 250.161667,136.724518 262.805054,130.086243 
	C282.502472,119.744316 300.269653,106.584404 316.883667,91.839134 
	C318.252502,90.624245 319.576416,89.354828 320.869873,88.059471 
	C327.722229,81.196938 329.399139,73.257210 325.644470,64.284836 
	C323.528870,59.229271 320.851807,54.371521 319.147247,49.188019 
	C314.002899,33.543964 318.869720,20.816734 339.436096,23.085155 
	C340.246002,23.475124 340.726501,23.817665 340.800903,24.284052 
	C342.498444,34.925823 347.938660,44.177963 351.772247,54.026928 
	C353.116730,57.481014 353.877930,61.051369 351.647369,64.942795 
	C351.056305,66.638084 350.590271,67.951508 349.887665,69.514313 
z"/>
<path fill="#FCFCF9" opacity="1.000000" stroke="none" 
	d="
M238.617096,463.851044 
	C243.579575,473.870789 243.891479,484.421722 244.918564,494.787567 
	C247.592361,521.772522 241.062302,547.585754 234.673706,573.424072 
	C232.245697,583.243958 229.710907,593.075134 229.887985,603.351990 
	C230.109528,616.208557 234.597870,619.832947 247.195770,618.408020 
	C265.679718,616.317200 284.225494,614.760742 302.754791,613.085754 
	C336.532471,610.032288 370.392120,608.368713 404.284790,607.333313 
	C425.081879,606.697937 445.843567,607.172180 466.877197,609.878784 
	C460.398834,619.267883 450.288452,619.983704 440.266876,620.067627 
	C422.119263,620.219604 403.973480,619.546387 385.815033,619.961731 
	C349.669952,620.788696 313.671448,623.846252 277.644318,626.545959 
	C259.720032,627.889038 241.821762,629.804382 223.829056,629.972717 
	C211.539124,630.087708 207.487000,625.022949 209.497345,612.679871 
	C211.594040,599.806702 216.297714,587.666138 220.313919,575.361938 
	C229.124252,548.370178 230.551834,520.908386 226.703445,492.983276 
	C225.475174,484.070496 223.590485,475.303955 220.885986,466.314819 
	C220.634506,465.754974 220.542038,465.557343 220.388489,465.038208 
	C220.327377,464.716705 220.387619,464.553040 220.370422,464.467529 
	C226.164749,460.889221 232.207138,462.220459 238.617096,463.851044 
z"/>
<path fill="#AEAF87" opacity="1.000000" stroke="none" 
	d="
M351.864075,65.262123 
	C352.460815,57.922977 349.795502,51.414944 346.399933,45.130501 
	C342.814667,38.494858 340.442108,31.521099 339.934143,23.541185 
	C345.089417,23.091303 350.029449,24.411770 354.731079,26.440248 
	C360.043976,28.732454 362.205811,33.063763 360.838470,40.636501 
	C359.289490,49.214977 356.593414,57.543404 351.864075,65.262123 
z"/>
<path fill="#A2B63F" opacity="1.000000" stroke="none" 
	d="
M238.984192,463.750397 
	C233.070465,464.229492 227.154999,464.282593 220.796387,464.358887 
	C218.986053,460.713715 217.618866,457.045349 216.298233,452.989349 
	C216.613815,452.485596 216.893723,452.445312 217.391907,452.513916 
	C222.008499,453.534271 226.525040,453.283844 230.903168,452.886475 
	C235.861130,452.436462 237.883270,454.362244 238.193237,458.994843 
	C238.290527,460.449127 238.710297,461.881836 238.984192,463.750397 
z"/>
<path fill="#A2B63F" opacity="1.000000" stroke="none" 
	d="
M220.233734,464.956573 
	C220.626663,464.890228 220.767944,465.149658 220.739090,465.723755 
	C220.531326,465.700531 220.335693,465.448486 220.233734,464.956573 
z"/>
<path fill="#FAFBF6" opacity="1.000000" stroke="none" 
	d="
M691.539307,390.497864 
	C693.982056,396.340027 696.244141,401.845398 698.652405,407.706726 
	C688.979614,407.706726 679.733398,407.706726 669.877869,407.706726 
	C674.589722,396.415680 679.224976,385.308197 684.237122,373.297699 
	C686.887573,379.573853 689.123108,384.867462 691.539307,390.497864 
z"/>
<path fill="#FAFBF6" opacity="1.000000" stroke="none" 
	d="
M870.739380,374.398743 
	C875.031555,384.522003 879.014221,394.374908 883.234863,404.124786 
	C884.598816,407.275726 883.996948,408.088898 880.603271,408.007660 
	C872.626587,407.816833 864.642151,407.946564 855.919189,407.946564 
	C861.061584,396.447144 864.420593,384.703339 870.739380,374.398743 
z"/>
<path fill="#FCFCF9" opacity="1.000000" stroke="none" 
	d="
M870.164978,520.170288 
	C861.315552,526.720947 852.297424,524.073608 849.069519,514.011414 
	C846.940796,507.375671 847.109497,500.488892 849.246155,493.858093 
	C851.063477,488.218109 855.822937,484.918274 861.188049,484.881439 
	C866.523438,484.844818 871.322693,487.705261 873.062805,493.147339 
	C875.994690,502.316681 876.148132,511.462982 870.164978,520.170288 
z"/>
<path fill="#FCFCF9" opacity="1.000000" stroke="none" 
	d="
M678.141357,486.486816 
	C687.354736,492.205933 686.373657,512.553101 681.604309,518.875732 
	C675.727417,526.666687 664.001465,525.301514 660.201416,516.045837 
	C657.280090,508.930298 656.979919,501.466248 659.515625,494.141388 
	C662.401855,485.804321 669.445923,482.884766 678.141357,486.486816 
z"/>
<path fill="#FAFBF6" opacity="1.000000" stroke="none" 
	d="
M805.143250,487.602051 
	C809.290222,491.129944 809.857117,495.139191 807.587097,499.420288 
	C805.248169,503.831421 801.021851,504.514893 796.502563,504.306183 
	C794.620911,504.219299 793.990417,503.281769 794.044067,501.447418 
	C794.145386,497.980286 794.396118,494.469604 793.992493,491.046814 
	C793.379272,485.846771 796.006836,485.057037 800.132080,485.914459 
	C801.727783,486.246124 803.262939,486.869019 805.143250,487.602051 
z"/>
<path fill="#F7F8F0" opacity="1.000000" stroke="none" 
	d="
M753.474060,497.500397 
	C754.217224,495.797882 754.774963,494.426117 755.757629,492.009277 
	C758.046265,497.390717 760.046997,501.974030 761.936340,506.602783 
	C762.607178,508.246124 761.884521,509.004242 760.079529,508.967041 
	C756.616028,508.895630 753.150085,508.946259 749.366455,508.946259 
	C749.750977,504.744476 752.042603,501.460114 753.474060,497.500397 
z"/>
<path fill="#535524" opacity="1.000000" stroke="none" 
	d="
M406.008423,524.000000 
	C406.184998,540.149109 406.155518,555.826416 401.929260,571.037292 
	C397.765717,586.022644 392.212097,587.741089 380.672394,588.244202 
	C362.220123,589.048767 343.790741,590.189453 325.308228,590.015503 
	C315.485260,589.923096 305.656372,589.492798 295.987427,587.879761 
	C279.863312,585.189697 269.603119,575.099182 264.011383,560.231140 
	C256.192780,539.441956 255.302658,517.697998 256.419128,495.834106 
	C257.037384,483.726685 257.823486,471.622437 258.808685,459.526794 
	C260.197632,442.473846 262.092194,425.480286 264.215454,408.523438 
	C267.017059,386.149536 270.488434,363.862915 274.937439,341.736145 
	C277.127106,330.846100 280.956146,320.375824 282.341217,309.258057 
	C284.067963,295.397614 285.087494,281.503510 286.012268,267.584045 
	C287.717957,241.910278 288.899658,216.145096 296.997406,191.397842 
	C301.089264,178.892822 306.875458,167.402664 317.418335,158.933853 
	C336.199036,143.847794 369.453705,141.063538 387.852020,168.781876 
	C396.898560,182.411102 402.197510,197.576065 407.034973,212.991745 
	C409.619080,221.226730 411.890015,229.600708 415.111420,237.585526 
	C420.064423,249.862381 421.274536,262.749390 421.872986,275.647552 
	C422.776123,295.110992 421.606506,314.573456 420.237823,334.008026 
	C419.804840,340.156128 420.384033,346.302887 420.781006,352.454865 
	C421.977234,370.994507 418.841400,389.259094 416.751343,407.566559 
	C414.757416,425.031830 412.389648,442.459045 409.898712,459.861847 
	C406.875854,480.980743 405.449371,502.173737 406.008423,524.000000 
z"/>
<path fill="#FEFFFE" opacity="1.000000" stroke="none" 
	d="
M275.199829,452.316040 
	C277.561249,430.193054 281.124115,408.478943 287.378174,387.425812 
	C297.581451,353.078247 304.275085,317.994720 310.975525,282.888855 
	C314.622772,263.779449 318.084473,244.616776 325.011780,226.341537 
	C329.472504,214.573441 334.881195,203.354752 346.126312,196.293442 
	C354.082153,191.297607 358.309235,192.063766 363.848724,199.737244 
	C368.568695,206.275497 371.654327,213.630188 374.117645,221.253845 
	C384.436401,253.189667 390.134888,286.107117 394.597687,319.258087 
	C395.526520,326.157684 395.240295,333.220886 395.584503,340.681824 
	C395.335602,341.539032 395.082397,342.057953 394.653198,342.257202 
	C385.357910,346.571930 383.906891,354.569550 384.495483,363.603210 
	C384.756042,367.602539 385.363861,371.546814 386.021851,375.485870 
	C386.704956,379.574921 388.435669,383.072205 392.003387,385.474396 
	C394.625580,387.240021 395.043060,389.591583 393.862396,392.455750 
	C387.109161,408.838776 383.812317,425.814331 384.337402,443.616638 
	C384.585388,452.023956 382.645935,453.473511 374.326477,453.480194 
	C343.517517,453.504883 312.708588,453.497406 281.899628,453.478729 
	C279.747650,453.477417 277.552094,453.661957 275.199829,452.316040 
z"/>
<path fill="#A3B63D" opacity="1.000000" stroke="none" 
	d="
M274.566345,452.258026 
	C308.852570,451.992432 342.837250,451.864624 376.819550,452.093994 
	C381.377533,452.124786 382.554962,450.456238 382.787811,446.528809 
	C383.358521,436.903839 382.657837,427.200592 384.638550,417.659424 
	C386.470093,408.837036 388.925629,400.210846 392.646606,391.993896 
	C393.758698,389.538025 394.131439,387.908905 391.047546,386.527374 
	C386.006897,384.269257 384.903351,379.352905 384.186310,374.515930 
	C383.356262,368.916656 382.872986,363.269928 382.989594,357.590332 
	C383.171112,348.750916 386.448364,344.236206 395.269531,341.207031 
	C397.383545,355.868561 402.805206,369.953674 403.075806,385.354584 
	C403.981445,392.983887 403.296570,400.198303 403.254608,407.857758 
	C403.296539,423.603119 400.650940,438.643585 399.287415,453.796600 
	C397.374420,475.055969 392.134247,495.782837 389.829987,516.990295 
	C388.174072,532.230896 386.105316,547.460876 383.114929,562.544983 
	C381.586090,570.256836 379.921753,577.232361 369.586914,577.051086 
	C360.702240,577.981445 352.188202,577.287292 343.233826,577.249634 
	C326.296814,576.628296 310.414734,573.203613 294.831573,567.906921 
	C281.358093,563.327271 276.490967,552.624146 274.028717,540.023743 
	C273.461060,537.118896 273.254364,534.143555 272.897125,530.782593 
	C272.174500,528.570007 272.690643,526.674316 272.306793,524.473633 
	C271.822357,522.621826 271.498413,521.134766 271.199463,519.268677 
	C271.857605,507.914246 271.385956,496.930389 271.331390,485.516235 
	C271.515594,479.295349 271.843323,473.509033 272.361328,467.360840 
	C275.277679,464.691895 278.513458,464.886932 282.168457,465.229370 
	C289.047302,467.914703 292.460388,474.731781 290.792603,482.058411 
	C289.900940,485.975555 288.473572,489.727936 286.151581,493.053070 
	C284.594330,495.283203 284.736542,497.147308 287.240662,498.393005 
	C294.938202,502.222046 297.572296,509.285645 299.312439,516.963318 
	C300.748993,523.301514 301.985596,529.688171 303.715088,535.955322 
	C304.272308,537.974487 304.036957,540.944458 306.296387,541.553772 
	C308.860779,542.245422 310.181793,539.386902 311.631134,537.733582 
	C315.038025,533.847168 318.421692,529.953308 322.167389,526.383545 
	C330.174652,518.752197 336.208832,519.615234 341.629272,529.388855 
	C345.872955,537.040588 347.843231,545.528564 350.161713,553.875061 
	C350.830078,556.281189 351.318604,558.659607 354.297668,559.576111 
	C360.486481,561.480103 362.290222,560.463257 363.434601,553.902649 
	C365.411682,542.568237 367.819183,531.370483 371.454803,520.399231 
	C374.980347,509.760284 376.375549,498.632507 376.563171,487.423889 
	C376.649963,482.239563 377.000549,477.123779 377.858429,472.012390 
	C378.694946,467.028198 378.191986,466.425995 373.166840,466.407562 
	C356.000885,466.344574 338.834656,466.385529 321.668518,466.383087 
	C311.168854,466.381592 300.669159,466.385559 290.169495,466.380829 
	C288.004272,466.379852 285.824951,466.479004 283.368561,465.470520 
	C279.955872,464.321320 276.703674,465.822662 273.397156,464.204712 
	C272.505798,460.019836 274.177307,456.346680 274.566345,452.258026 
z"/>
<path fill="#A8B65B" opacity="1.000000" stroke="none" 
	d="
M271.121948,485.539185 
	C272.953156,488.896545 271.857880,492.923157 271.932495,496.836426 
	C272.068695,503.975983 271.814606,511.123016 271.473877,518.578308 
	C271.168274,507.925385 271.112122,496.961029 271.121948,485.539185 
z"/>
<path fill="#A8B65B" opacity="1.000000" stroke="none" 
	d="
M343.126617,577.318176 
	C351.259003,577.043030 359.737549,577.028564 368.703735,577.032837 
	C360.653503,578.932556 352.056488,577.931335 343.126617,577.318176 
z"/>
<path fill="#C9D58B" opacity="1.000000" stroke="none" 
	d="
M283.295837,465.635864 
	C279.796814,465.730713 276.614624,466.285980 273.002747,467.014709 
	C272.665375,466.229065 272.779114,465.459106 272.981415,464.307983 
	C276.174255,464.034058 279.278503,464.141357 282.692261,464.508087 
	C283.176453,464.954498 283.351166,465.141510 283.295837,465.635864 
z"/>
<path fill="#A8B65B" opacity="1.000000" stroke="none" 
	d="
M403.327393,407.954285 
	C403.057739,401.137390 403.039642,393.957367 403.036072,386.287750 
	C404.876984,393.022461 403.930054,400.314056 403.327393,407.954285 
z"/>
<path fill="#A8B65B" opacity="1.000000" stroke="none" 
	d="
M272.094604,524.507690 
	C273.668121,525.714172 272.777313,527.686707 272.939453,529.929749 
	C271.482788,528.726868 272.131622,526.757874 272.094604,524.507690 
z"/>
<path fill="#FEFFFC" opacity="1.000000" stroke="none" 
	d="
M283.375732,466.084381 
	C283.061310,465.747192 283.056793,465.551147 283.026978,465.061310 
	C313.497833,464.735413 343.993927,464.701080 374.490051,464.673187 
	C380.662933,464.667542 380.791901,464.707031 379.457977,470.798706 
	C377.693878,478.855103 378.403046,487.066223 377.636902,495.175537 
	C376.537811,506.808685 374.162231,518.129822 370.145721,529.189880 
	C366.791382,538.426514 365.870880,548.331055 364.213715,557.993347 
	C363.548676,561.871338 361.945801,562.303650 358.523987,561.986450 
	C352.760345,561.452148 349.338776,559.547363 348.387817,553.043152 
	C347.509460,547.035583 344.968506,541.250732 342.960571,535.436646 
	C341.819458,532.132385 340.207184,529.005188 337.922760,526.291138 
	C333.723694,521.302368 330.654205,520.921875 325.631531,525.063477 
	C319.428894,530.177979 314.620667,536.640869 309.164398,542.478088 
	C305.992218,545.871765 304.994873,545.847595 303.745758,541.325012 
	C301.577850,533.475586 299.742218,525.524658 298.052002,517.555908 
	C296.320526,509.392456 293.318024,502.257751 285.033875,498.702820 
	C281.906738,497.360840 282.426910,495.670258 284.179962,493.406494 
	C287.292664,489.387054 289.401093,484.780029 289.713013,479.696075 
	C290.043671,474.306030 288.488434,469.463440 283.375732,466.084381 
z"/>
<path fill="#F2F8D0" opacity="1.000000" stroke="none" 
	d="
M325.978149,555.068115 
	C326.982513,552.500671 328.172455,550.616455 330.469421,553.362671 
	C331.341736,554.405579 332.765625,556.409668 331.628143,557.183777 
	C329.597137,558.565796 327.444519,557.423584 325.978149,555.068115 
z"/>
</svg>